<svg xmlns="http://www.w3.org/2000/svg" viewBox="0 0 512 512" style="enable-background:new 0 0 512 512" xml:space="preserve"><linearGradient id="a" gradientUnits="userSpaceOnUse" x1="25.479" y1="39.851" x2="457.78" y2="464.66"><stop offset="0" style="stop-color:#fef050"/><stop offset=".035" style="stop-color:#fae73d"/><stop offset=".093" style="stop-color:#f5db22"/><stop offset=".154" style="stop-color:#f2d20f"/><stop offset=".215" style="stop-color:#f0cd04"/><stop offset=".281" style="stop-color:#efcb00"/><stop offset=".668" style="stop-color:#d99544"/><stop offset=".888" style="stop-color:#cd6f3c"/><stop offset="1" style="stop-color:#c34435"/></linearGradient><path style="fill:url(#a)" d="M56.917 206.22h50.75l9.737 35.276a2.501 2.501 0 0 0 4.82-1.331l-10.243-37.111a2.5 2.5 0 0 0-2.41-1.835H56.917c-3.763 0-6.824-3.062-6.824-6.824s3.062-6.824 6.824-6.824h64.949l9.737 35.277a2.5 2.5 0 0 0 2.41 1.835h62.19c.026.001.053.006.079.006.017 0 .033-.006.049-.006h119.364c.01 0 .019.003.029.003l.046-.003h83.672c3.763 0 6.824 3.062 6.824 6.824s-3.062 6.824-6.824 6.824H139.159c-.025 0-.049.008-.074.009-.116.003-.231.02-.348.04-.065.011-.13.017-.194.033-.016.004-.033.004-.049.008a2.48 2.48 0 0 0-.346.134c-.036.016-.074.025-.109.042-.163.082-.314.18-.452.292-.031.025-.056.056-.085.082a2.463 2.463 0 0 0-.288.299c-.013.017-.031.029-.044.046-.026.034-.041.074-.065.109a2.601 2.601 0 0 0-.26.482 2.513 2.513 0 0 0-.104.329c-.015.061-.032.121-.042.183a2.408 2.408 0 0 0-.029.381c-.001.052-.007.102-.005.153.009.18.034.36.084.541l34.179 123.837.002.004 12.986 47.049a2.5 2.5 0 0 0 2.41 1.835h146.923c3.763 0 6.824 3.062 6.824 6.824s-3.061 6.824-6.824 6.824H174.03l-36.487-132.196a2.5 2.5 0 0 0-4.82 1.33l36.994 134.031a2.5 2.5 0 0 0 2.41 1.835h7.121c-5.842 4.461-9.621 11.493-9.621 19.395 0 13.451 10.943 24.395 24.394 24.395 13.451 0 24.395-10.943 24.395-24.395 0-7.901-3.779-14.934-9.621-19.395h97.109c-5.842 4.461-9.621 11.493-9.621 19.395 0 13.451 10.943 24.395 24.395 24.395 13.451 0 24.394-10.943 24.394-24.395 0-8.006-3.877-15.122-9.852-19.573 5.582-.943 9.852-5.799 9.852-11.646 0-6.52-5.304-11.824-11.824-11.824h-145.02l-11.607-42.053h132.952c34.756 0 65.238-23.467 74.126-57.067l3.288-12.428a2.5 2.5 0 0 0-4.834-1.278l-3.288 12.428c-8.095 30.6-35.35 52.2-66.792 53.292V272.78c0-6.52-5.304-11.824-11.824-11.824s-11.824 5.304-11.824 11.824v89.388h-24.511V272.78c0-6.52-5.304-11.824-11.824-11.824s-11.824 5.304-11.824 11.824v89.388h-24.511V272.78c0-6.52-5.304-11.824-11.824-11.824s-11.824 5.304-11.824 11.824v89.388h-16.866l-14.416-52.23-18.383-66.607h253.751l-5.155 19.485a2.5 2.5 0 0 0 4.834 1.278l5.54-20.942c5.583-.943 9.852-5.799 9.852-11.646 0-6.52-5.304-11.824-11.824-11.824h-76.213a107.597 107.597 0 0 0 32.031-42.739 2.48 2.48 0 0 0 .278-.7 107.271 107.271 0 0 0 7.876-40.326c0-14.659-2.956-28.64-8.296-41.383a2.497 2.497 0 0 0-.149-.365c-11.774-27.806-34.94-49.656-63.61-59.68a2.436 2.436 0 0 0-.376-.133A106.962 106.962 0 0 0 256 28.503c-11.42 0-22.663 1.783-33.417 5.301a2.5 2.5 0 0 0 1.554 4.752c10.251-3.353 20.972-5.053 31.863-5.053a102.09 102.09 0 0 1 29.659 4.385l-25.436 25.436c-5.946 5.942-9.221 13.845-9.221 22.253s3.274 16.313 9.22 22.259l9.321 9.321h-38.831c-11.261 0-20.423 9.162-20.423 20.423v17.068c0 11.261 9.162 20.423 20.423 20.423h16.496v14.954c0 9.306 7.571 16.877 16.877 16.877h13.689c9.306 0 16.877-7.571 16.877-16.877v-34.907c0-.066-.001-.129-.004-.19.003-.094.004-.187.004-.279v-17.068c0-.639-.03-1.275-.088-1.907a31.441 31.441 0 0 0 29.669-8.338l27.581-27.581a101.904 101.904 0 0 1 6.599 36.161c0 12.938-2.458 25.561-7.05 37.292h-23.047c-9.306 0-16.877 7.571-16.877 16.877v13.689a16.864 16.864 0 0 0 6.755 13.499 102.737 102.737 0 0 1-3.272 2.408H197.078a102.554 102.554 0 0 1-22.082-21.123c11.336-4.989 18.748-16.145 18.748-28.777V99.432c0-11.858-6.815-22.729-17.243-28.046a101.697 101.697 0 0 1 9.866-10.565 2.5 2.5 0 0 0-3.4-3.666 106.817 106.817 0 0 0-12.181 13.411 2.449 2.449 0 0 0-.399.521c-14.004 18.536-21.799 41.347-21.799 64.833 0 22.785 7.251 44.646 20.213 62.687.094.175.21.333.339.478a107.538 107.538 0 0 0 19.634 20.601h-52.857l-9.737-35.277a2.5 2.5 0 0 0-2.41-1.835H56.917c-6.52 0-11.824 5.304-11.824 11.824s5.303 11.822 11.824 11.822zm156.499 246.044c0 10.694-8.7 19.395-19.395 19.395-10.694 0-19.394-8.7-19.394-19.395s8.7-19.395 19.394-19.395c10.694.001 19.395 8.701 19.395 19.395zm126.656 0c0 10.694-8.7 19.395-19.394 19.395-10.694 0-19.395-8.7-19.395-19.395s8.7-19.395 19.395-19.395c10.694.001 19.394 8.701 19.394 19.395zM293.427 272.78c0-3.763 3.062-6.824 6.824-6.824s6.824 3.062 6.824 6.824v89.388h-13.648V272.78zm-48.159 0c0-3.763 3.061-6.824 6.824-6.824s6.824 3.062 6.824 6.824v89.388h-13.648V272.78zm-48.16 0c0-3.763 3.062-6.824 6.824-6.824s6.824 3.062 6.824 6.824v89.388h-13.648V272.78zm123.588-148.976a26.456 26.456 0 0 1-28.51 5.881 2.502 2.502 0 0 0-3.298 3.104c.507 1.543.764 3.156.764 4.794V154.76a2.564 2.564 0 0 0 0 .411v34.857c0 6.549-5.328 11.877-11.877 11.877h-13.689c-6.549 0-11.877-5.328-11.877-11.877v-17.454a2.5 2.5 0 0 0-2.5-2.5h-18.996c-8.504 0-15.423-6.919-15.423-15.423v-17.068c0-8.504 6.919-15.423 15.423-15.423h43.517c.416 0 .825.023 1.226.052a2.498 2.498 0 0 0 1.95-4.261l-13.647-13.648c-5.001-5.001-7.755-11.651-7.755-18.724 0-7.072 2.754-13.719 7.755-18.717l27.207-27.207c26.286 9.577 47.573 29.632 58.796 55.086l-29.066 29.063zm-4.257 79.973v-13.689c0-6.549 5.328-11.877 11.877-11.877h20.942a102.593 102.593 0 0 1-26.989 35.783 11.869 11.869 0 0 1-5.83-10.217zm-162.852-67.859c0-21.841 7.073-43.07 19.812-60.502 9.25 4.303 15.345 13.723 15.345 24.016v70.351c0 11-6.676 20.677-16.783 24.637-11.796-16.953-18.374-37.308-18.374-58.502z"/></svg>